<svg width="406" height="376" viewBox="0 0 406 376" fill="none" xmlns="http://www.w3.org/2000/svg">
<ellipse cx="180.251" cy="166" rx="173" ry="166" fill="url(#paint0_radial)"/>
<path d="M334.279 131.949C342.75 140.803 352.202 142.216 362.633 136.187C358.256 129.196 357.214 121.591 358.38 113.58H338.059C338.96 120.62 338.717 127.175 334.279 131.949Z" fill="#FFB8B8"/>
<path d="M367.831 363.668L378.701 358.017L383.427 298.203V266.647L358.38 266.177L365.468 297.732L367.831 363.668Z" fill="#FFB8B8"/>
<path d="M336.324 363.668L325.455 358.017L320.73 298.203V266.647L345.776 266.177L338.688 297.732L336.324 363.668Z" fill="#FFB8B8"/>
<path d="M319.629 273.241L346.093 270.886L350.346 246.866L355.545 270.415L384.372 268.531C385.002 257.088 383.402 245.31 379.646 233.208L316.321 231.795L319.629 273.241Z" fill="#00283F"/>
<path d="M292.122 183.034L260.288 158.604C259.958 158.35 259.595 158.142 259.209 157.986L254.582 156.11C250.865 154.603 243.787 149.591 247.239 144.43C250.022 140.269 260.676 147.723 261.987 150.484C262.401 151.353 263.081 152.069 263.928 152.53L270.397 156.063C270.555 156.149 270.717 156.226 270.883 156.293L295.513 166.243C296.196 166.518 296.935 166.628 297.669 166.562C298.402 166.496 299.11 166.256 299.732 165.863L304.197 163.041C304.832 162.64 305.556 162.399 306.306 162.339C307.056 162.279 307.81 162.402 308.501 162.697C309.192 162.993 309.801 163.452 310.275 164.034C310.748 164.617 311.072 165.306 311.218 166.041L312.694 173.465C312.906 174.533 312.733 175.643 312.203 176.596C311.674 177.549 310.823 178.285 309.801 178.673L296.596 183.69C295.856 183.971 295.057 184.058 294.273 183.943C293.49 183.828 292.749 183.515 292.122 183.034V183.034Z" fill="#FFB8B8"/>
<path d="M298.035 165.234C306.849 162.879 305.924 175.15 312.648 181.184L325.869 170.782L318.211 133.832C316.156 134.417 314.266 135.471 312.691 136.909C311.115 138.347 309.896 140.131 309.131 142.119L298.035 165.234Z" fill="#094265"/>
<path d="M314.43 234.15H381.064C370.28 205.188 371.33 175.401 380.512 145.046C380.666 144.542 380.639 144 380.435 143.514C380.231 143.028 379.864 142.628 379.396 142.383L360.27 132.42C352.763 137.288 344.694 135.792 336.169 129.123L315.375 134.774C321.036 168.656 321.197 201.841 314.43 234.15Z" fill="#094265"/>
<path d="M331.092 374.73L303.323 375.903C302.114 375.954 300.929 375.558 299.995 374.79C299.062 374.022 298.446 372.938 298.267 371.745V371.745C298.086 370.54 298.364 369.312 299.045 368.3C299.726 367.289 300.761 366.567 301.948 366.277L306.658 365.126L325.17 354.433C327.913 357.263 331.69 359.656 336.306 361.694L336.36 369.213C336.371 370.634 335.827 372.003 334.844 373.032C333.861 374.061 332.516 374.67 331.092 374.73V374.73Z" fill="url(#paint1_linear)"/>
<path d="M372.834 374.31L400.602 375.483C401.812 375.534 402.997 375.138 403.93 374.37C404.864 373.602 405.479 372.518 405.658 371.325V371.325C405.839 370.12 405.562 368.891 404.881 367.88C404.2 366.868 403.164 366.147 401.977 365.857L397.267 364.706L378.755 354.013C376.013 356.843 372.236 359.236 367.619 361.274L367.565 368.793C367.555 370.213 368.098 371.583 369.081 372.612C370.064 373.641 371.409 374.25 372.834 374.31V374.31Z" fill="url(#paint2_linear)"/>
<path d="M346.093 122.058C354.445 122.058 361.215 115.31 361.215 106.987C361.215 98.6632 354.445 91.9156 346.093 91.9156C337.741 91.9156 330.97 98.6632 330.97 106.987C330.97 115.31 337.741 122.058 346.093 122.058Z" fill="#FFB8B8"/>
<path d="M369.722 229.44L364.726 239.122C364.285 239.976 364.031 240.914 363.979 241.873C363.928 242.833 364.081 243.792 364.428 244.688C364.775 245.584 365.309 246.397 365.994 247.073C366.679 247.749 367.5 248.273 368.402 248.61V248.61C369.358 248.968 370.381 249.107 371.397 249.018C372.414 248.929 373.397 248.615 374.276 248.097C375.154 247.58 375.905 246.874 376.474 246.029C377.042 245.185 377.414 244.224 377.561 243.218L379.646 228.969L387.207 193.175L386.735 175.278H371.612C376.77 188.59 374.211 208.224 369.722 229.44Z" fill="#FFB8B8"/>
<path d="M369.249 177.162H389.57L386.62 154.952C386.22 151.94 385.07 149.076 383.274 146.62C381.478 144.165 379.093 142.198 376.338 140.897L369.249 177.162Z" fill="#094265"/>
<path d="M362.17 98.6854C362.472 96.6721 362.346 94.618 361.798 92.6568C361.25 90.6957 360.294 88.8716 358.992 87.3033C356.412 84.2605 352.087 81.77 344.912 82.9449C329.257 85.5083 324.743 98.4964 326.277 101.763C327.811 105.029 332.512 112.601 332.512 112.601C332.512 112.601 329.061 105.106 332.806 103.58C336.551 102.054 351.042 96.044 356.1 98.7516C357.532 99.4681 358.747 100.55 359.623 101.887C360.499 103.224 361.004 104.768 361.086 106.363L362.17 98.6854Z" fill="url(#paint3_linear)"/>
<path d="M46.1536 169.209V164.201C46.1536 164.201 68.0844 151.907 85.9031 164.201V168.754L46.1536 169.209Z" fill="url(#paint4_linear)"/>
<path d="M245.815 169.209V164.201C245.815 164.201 267.745 151.907 285.564 164.201V168.754L245.815 169.209Z" fill="url(#paint5_linear)"/>
<path d="M111.946 168.754H90.4719C90.4719 168.754 84.9892 162.379 66.7136 162.835C48.4381 163.29 44.7829 168.754 44.7829 168.754C44.7829 168.754 26.7357 180.821 22.6237 195.847C22.6237 195.847 0.464544 262.099 0.00765664 314.008C-0.449231 365.917 19.6539 373.203 30.1624 374.569C40.6709 375.935 59.4034 374.113 77.679 328.124L85.4461 301.259C85.4461 301.259 86.8168 285.322 103.265 295.339C119.713 305.357 134.333 289.875 134.333 289.875H196.014C196.014 289.875 216.574 302.625 235.306 292.607C235.306 292.607 242.616 283.045 249.47 315.374C249.47 315.374 270.487 381.854 302.926 375.024C335.365 368.194 331.71 312.642 331.71 312.642C331.71 312.642 327.369 227.721 309.551 197.668C309.551 197.668 292.417 166.477 280.995 165.111C280.995 165.111 256.323 160.558 246.728 164.656L241.246 169.209L111.946 168.754Z" fill="url(#paint6_linear)"/>
<path d="M111.946 168.754H90.4719C90.4719 168.754 84.9892 162.379 66.7136 162.835C48.4381 163.29 44.7829 168.754 44.7829 168.754C44.7829 168.754 26.7357 180.821 22.6237 195.847C22.6237 195.847 0.464544 262.099 0.00765664 314.008C-0.449231 365.917 19.6539 373.203 30.1624 374.569C40.6709 375.935 59.4034 374.113 77.679 328.124L85.4461 301.259C85.4461 301.259 86.8168 285.322 103.265 295.339C119.713 305.357 134.333 289.875 134.333 289.875H196.014C196.014 289.875 216.574 302.625 235.306 292.607C235.306 292.607 242.616 283.045 249.47 315.374C249.47 315.374 270.487 381.854 302.926 375.024C335.365 368.194 331.71 312.642 331.71 312.642C331.71 312.642 327.369 227.721 309.551 197.668C309.551 197.668 292.417 166.477 280.995 165.111C280.995 165.111 256.323 160.558 246.728 164.656L241.246 169.209L111.946 168.754Z" fill="url(#paint7_linear)"/>
<path d="M111.946 168.754H90.4719C90.4719 168.754 84.9892 162.379 66.7136 162.835C48.4381 163.29 44.7829 168.754 44.7829 168.754C44.7829 168.754 26.7357 180.821 22.6237 195.847C22.6237 195.847 0.464544 262.099 0.00765664 314.008C-0.449231 365.917 19.6539 373.203 30.1624 374.569C40.6709 375.935 59.4034 374.113 77.679 328.124L85.4461 301.259C85.4461 301.259 86.8168 285.322 103.265 295.339C119.713 305.357 134.333 289.875 134.333 289.875H196.014C196.014 289.875 216.574 302.625 235.306 292.607C235.306 292.607 242.616 283.045 249.47 315.374C249.47 315.374 270.487 381.854 302.926 375.024C335.365 368.194 331.71 312.642 331.71 312.642C331.71 312.642 327.369 227.721 309.551 197.668C309.551 197.668 292.417 166.477 280.995 165.111C280.995 165.111 256.323 160.558 246.728 164.656L241.246 169.209L111.946 168.754Z" fill="url(#paint8_linear)"/>
<path d="M62.1448 252.992C84.0978 252.992 101.894 235.256 101.894 213.378C101.894 191.499 84.0978 173.763 62.1448 173.763C40.1918 173.763 22.3954 191.499 22.3954 213.378C22.3954 235.256 40.1918 252.992 62.1448 252.992Z" fill="url(#paint9_linear)"/>
<path d="M269.573 252.992C291.526 252.992 309.322 235.256 309.322 213.378C309.322 191.499 291.526 173.763 269.573 173.763C247.62 173.763 229.823 191.499 229.823 213.378C229.823 235.256 247.62 252.992 269.573 252.992Z" fill="url(#paint10_linear)"/>
<path d="M69.0712 204.544L63.7712 209.216C63.3224 209.61 62.745 209.827 62.147 209.827C61.5491 209.827 60.9716 209.61 60.5228 209.216L55.2137 204.544C54.9541 204.316 54.7458 204.036 54.6025 203.722C54.4592 203.408 54.3841 203.068 54.3822 202.723V189.868C54.3834 189.219 54.6429 188.598 55.1037 188.139C55.5646 187.681 56.1891 187.423 56.8402 187.423H67.4629C68.1136 187.422 68.7382 187.678 69.1991 188.136C69.6601 188.594 69.9198 189.215 69.921 189.864V202.714C69.9181 203.061 69.8408 203.405 69.6943 203.72C69.5477 204.036 69.3353 204.317 69.0712 204.544Z" fill="url(#paint11_linear)"/>
<path d="M69.0712 222.207L63.7712 217.539C63.3224 217.146 62.745 216.928 62.147 216.928C61.5491 216.928 60.9716 217.146 60.5228 217.539L55.2137 222.211C54.9541 222.439 54.7458 222.719 54.6025 223.033C54.4592 223.347 54.3841 223.688 54.3822 224.033V236.873C54.381 237.522 54.6383 238.144 55.0976 238.604C55.5569 239.063 56.1804 239.322 56.8311 239.323H67.463C68.1137 239.324 68.7382 239.068 69.1992 238.61C69.6601 238.152 69.9198 237.531 69.921 236.882V224.037C69.9182 223.689 69.8408 223.346 69.6943 223.031C69.5477 222.715 69.3353 222.434 69.0712 222.207V222.207Z" fill="url(#paint12_linear)"/>
<path d="M53.2856 220.29L57.9733 214.999C58.3684 214.551 58.5864 213.976 58.5864 213.38C58.5864 212.784 58.3684 212.208 57.9733 211.761L53.2856 206.47C53.0567 206.212 52.7756 206.004 52.4606 205.861C52.1457 205.718 51.8041 205.644 51.4581 205.641H38.5738C37.9227 205.643 37.2986 205.901 36.8386 206.361C36.3786 206.82 36.1203 207.442 36.1203 208.091V218.678C36.1191 219.326 36.3764 219.949 36.8357 220.408C37.2949 220.868 37.9185 221.126 38.5692 221.128H51.4626C51.8086 221.124 52.1499 221.047 52.4641 220.903C52.7782 220.759 53.0582 220.55 53.2856 220.29V220.29Z" fill="url(#paint13_linear)"/>
<path d="M71.0084 220.29L66.3299 214.994C65.9338 214.547 65.7153 213.972 65.7153 213.375C65.7153 212.779 65.9338 212.204 66.3299 211.757L71.0176 206.466C71.2463 206.207 71.5274 205.999 71.8424 205.856C72.1574 205.714 72.4991 205.639 72.8451 205.637H85.7295C86.3802 205.636 87.0047 205.892 87.4657 206.35C87.9266 206.808 88.1863 207.429 88.1875 208.077V218.673C88.1887 219.322 87.9314 219.944 87.4721 220.404C87.0129 220.863 86.3893 221.122 85.7386 221.123H72.8497C72.501 221.123 72.1564 221.048 71.8389 220.904C71.5214 220.761 71.2383 220.551 71.0084 220.29V220.29Z" fill="url(#paint14_linear)"/>
<path d="M116.058 285.322C131.955 285.322 144.842 272.478 144.842 256.635C144.842 240.792 131.955 227.949 116.058 227.949C100.161 227.949 87.2737 240.792 87.2737 256.635C87.2737 272.478 100.161 285.322 116.058 285.322Z" fill="url(#paint15_linear)"/>
<path d="M215.66 285.322C231.557 285.322 244.444 272.478 244.444 256.635C244.444 240.792 231.557 227.949 215.66 227.949C199.763 227.949 186.876 240.792 186.876 256.635C186.876 272.478 199.763 285.322 215.66 285.322Z" fill="url(#paint16_linear)"/>
<path d="M116.058 275.759C126.656 275.759 135.247 267.197 135.247 256.635C135.247 246.073 126.656 237.511 116.058 237.511C105.46 237.511 96.8684 246.073 96.8684 256.635C96.8684 267.197 105.46 275.759 116.058 275.759Z" fill="url(#paint17_linear)"/>
<path d="M116.058 269.84C113.437 269.84 110.876 269.065 108.697 267.615C106.518 266.164 104.819 264.101 103.817 261.688C102.814 259.275 102.551 256.62 103.063 254.059C103.574 251.497 104.836 249.144 106.689 247.298C108.542 245.451 110.903 244.193 113.473 243.684C116.043 243.174 118.707 243.436 121.128 244.435C123.549 245.435 125.619 247.127 127.075 249.299C128.531 251.47 129.308 254.023 129.308 256.635C129.304 260.136 127.906 263.492 125.422 265.968C122.938 268.443 119.571 269.836 116.058 269.84V269.84ZM116.058 244.341C113.618 244.341 111.233 245.062 109.204 246.413C107.176 247.764 105.595 249.684 104.661 251.93C103.727 254.177 103.483 256.649 103.959 259.034C104.435 261.418 105.61 263.609 107.335 265.328C109.06 267.048 111.258 268.219 113.651 268.693C116.044 269.167 118.525 268.924 120.779 267.993C123.033 267.063 124.959 265.487 126.315 263.465C127.67 261.444 128.394 259.067 128.394 256.635C128.39 253.376 127.089 250.251 124.777 247.946C122.464 245.641 119.328 244.345 116.058 244.341V244.341Z" fill="url(#paint18_linear)"/>
<path d="M215.66 275.759C226.258 275.759 234.849 267.197 234.849 256.635C234.849 246.073 226.258 237.511 215.66 237.511C205.062 237.511 196.47 246.073 196.47 256.635C196.47 267.197 205.062 275.759 215.66 275.759Z" fill="url(#paint19_linear)"/>
<path d="M215.66 269.84C213.039 269.84 210.478 269.065 208.299 267.615C206.12 266.164 204.422 264.101 203.419 261.688C202.416 259.275 202.153 256.62 202.665 254.059C203.176 251.497 204.438 249.144 206.291 247.298C208.144 245.451 210.505 244.193 213.075 243.684C215.645 243.174 218.309 243.436 220.73 244.435C223.151 245.435 225.221 247.127 226.677 249.299C228.133 251.47 228.91 254.023 228.91 256.635C228.906 260.136 227.508 263.492 225.024 265.968C222.541 268.443 219.173 269.836 215.66 269.84ZM215.66 244.341C213.22 244.341 210.835 245.062 208.806 246.413C206.778 247.764 205.197 249.684 204.263 251.93C203.329 254.177 203.085 256.649 203.561 259.034C204.037 261.418 205.212 263.609 206.937 265.328C208.662 267.048 210.86 268.219 213.253 268.693C215.646 269.167 218.127 268.924 220.381 267.993C222.635 267.063 224.561 265.487 225.917 263.465C227.272 261.444 227.996 259.067 227.996 256.635C227.992 253.376 226.691 250.251 224.379 247.946C222.066 245.641 218.93 244.345 215.66 244.341V244.341Z" fill="url(#paint20_linear)"/>
<path d="M166.773 268.019C171.315 268.019 174.997 264.349 174.997 259.822C174.997 255.296 171.315 251.626 166.773 251.626C162.231 251.626 158.549 255.296 158.549 259.822C158.549 264.349 162.231 268.019 166.773 268.019Z" fill="url(#paint21_linear)"/>
<path d="M154.204 234.255C155.195 234.255 155.999 233.454 155.999 232.466C155.999 231.477 155.195 230.676 154.204 230.676C153.212 230.676 152.408 231.477 152.408 232.466C152.408 233.454 153.212 234.255 154.204 234.255Z" fill="url(#paint22_linear)"/>
<path d="M160.929 234.255C161.921 234.255 162.725 233.454 162.725 232.466C162.725 231.477 161.921 230.676 160.929 230.676C159.937 230.676 159.133 231.477 159.133 232.466C159.133 233.454 159.937 234.255 160.929 234.255Z" fill="url(#paint23_linear)"/>
<path d="M160.033 242.747C161.025 242.747 161.829 241.946 161.829 240.958C161.829 239.969 161.025 239.168 160.033 239.168C159.042 239.168 158.238 239.969 158.238 240.958C158.238 241.946 159.042 242.747 160.033 242.747Z" fill="url(#paint24_linear)"/>
<path d="M166.316 242.975C167.325 242.975 168.143 242.159 168.143 241.153C168.143 240.148 167.325 239.332 166.316 239.332C165.306 239.332 164.488 240.148 164.488 241.153C164.488 242.159 165.306 242.975 166.316 242.975Z" fill="url(#paint25_linear)"/>
<path d="M172.589 242.747C173.58 242.747 174.384 241.946 174.384 240.958C174.384 239.969 173.58 239.168 172.589 239.168C171.597 239.168 170.793 239.969 170.793 240.958C170.793 241.946 171.597 242.747 172.589 242.747Z" fill="url(#paint26_linear)"/>
<path d="M157.342 238.727C158.334 238.727 159.138 237.925 159.138 236.937C159.138 235.949 158.334 235.148 157.342 235.148C156.351 235.148 155.547 235.949 155.547 236.937C155.547 237.925 156.351 238.727 157.342 238.727Z" fill="url(#paint27_linear)"/>
<path d="M163.117 238.877C164.127 238.877 164.945 238.061 164.945 237.055C164.945 236.049 164.127 235.234 163.117 235.234C162.108 235.234 161.29 236.049 161.29 237.055C161.29 238.061 162.108 238.877 163.117 238.877Z" fill="url(#paint28_linear)"/>
<path d="M169.057 238.877C170.066 238.877 170.885 238.061 170.885 237.055C170.885 236.049 170.066 235.234 169.057 235.234C168.048 235.234 167.229 236.049 167.229 237.055C167.229 238.061 168.048 238.877 169.057 238.877Z" fill="url(#paint29_linear)"/>
<path d="M175.28 238.727C176.272 238.727 177.075 237.925 177.075 236.937C177.075 235.949 176.272 235.148 175.28 235.148C174.288 235.148 173.484 235.949 173.484 236.937C173.484 237.925 174.288 238.727 175.28 238.727Z" fill="url(#paint30_linear)"/>
<path d="M166.316 234.323C167.325 234.323 168.143 233.508 168.143 232.502C168.143 231.496 167.325 230.681 166.316 230.681C165.306 230.681 164.488 231.496 164.488 232.502C164.488 233.508 165.306 234.323 166.316 234.323Z" fill="url(#paint31_linear)"/>
<path d="M172.712 234.323C173.721 234.323 174.54 233.508 174.54 232.502C174.54 231.496 173.721 230.681 172.712 230.681C171.703 230.681 170.885 231.496 170.885 232.502C170.885 233.508 171.703 234.323 172.712 234.323Z" fill="url(#paint32_linear)"/>
<path d="M177.971 234.255C178.963 234.255 179.767 233.454 179.767 232.466C179.767 231.477 178.963 230.676 177.971 230.676C176.979 230.676 176.175 231.477 176.175 232.466C176.175 233.454 176.979 234.255 177.971 234.255Z" fill="url(#paint33_linear)"/>
<path d="M98.4673 172.635C97.6222 172.636 96.812 172.971 96.2144 173.566C95.6168 174.162 95.2806 174.97 95.2797 175.812V185.374C95.2806 186.217 95.6168 187.024 96.2144 187.62C96.812 188.215 97.6222 188.55 98.4673 188.551H100.752C101.597 188.55 102.407 188.215 103.005 187.62C103.602 187.024 103.939 186.217 103.94 185.374V175.812C103.939 174.97 103.602 174.162 103.005 173.566C102.407 172.971 101.597 172.636 100.752 172.635H98.4673Z" fill="#535461"/>
<path d="M231.879 172.635C231.034 172.636 230.224 172.971 229.626 173.566C229.029 174.162 228.692 174.97 228.692 175.812V185.374C228.692 186.217 229.029 187.024 229.626 187.62C230.224 188.215 231.034 188.55 231.879 188.551H234.164C235.009 188.55 235.819 188.215 236.417 187.62C237.014 187.024 237.351 186.217 237.351 185.374V175.812C237.351 174.97 237.014 174.162 236.417 173.566C235.819 172.971 235.009 172.636 234.164 172.635H231.879Z" fill="url(#paint34_linear)"/>
<path d="M270.03 200.173C276.086 200.173 280.995 195.28 280.995 189.245C280.995 183.209 276.086 178.316 270.03 178.316C263.974 178.316 259.064 183.209 259.064 189.245C259.064 195.28 263.974 200.173 270.03 200.173Z" fill="url(#paint35_linear)"/>
<path d="M246.728 223.395C252.784 223.395 257.694 218.502 257.694 212.467C257.694 206.431 252.784 201.539 246.728 201.539C240.672 201.539 235.763 206.431 235.763 212.467C235.763 218.502 240.672 223.395 246.728 223.395Z" fill="url(#paint36_linear)"/>
<path d="M294.245 222.029C300.301 222.029 305.21 217.136 305.21 211.101C305.21 205.065 300.301 200.173 294.245 200.173C288.189 200.173 283.28 205.065 283.28 211.101C283.28 217.136 288.189 222.029 294.245 222.029Z" fill="url(#paint37_linear)"/>
<path d="M271.857 246.162C277.913 246.162 282.823 241.27 282.823 235.234C282.823 229.199 277.913 224.306 271.857 224.306C265.801 224.306 260.892 229.199 260.892 235.234C260.892 241.27 265.801 246.162 271.857 246.162Z" fill="url(#paint38_linear)"/>
<path d="M119.142 166.26C116.692 166.263 114.343 167.234 112.61 168.961C110.877 170.688 109.903 173.029 109.9 175.471V216.223C109.903 218.665 110.877 221.006 112.61 222.733C114.343 224.46 116.692 225.431 119.142 225.434H213.032C215.483 225.431 217.832 224.46 219.564 222.733C221.297 221.006 222.271 218.665 222.274 216.223V175.471C222.271 173.029 221.297 170.688 219.564 168.961C217.832 167.234 215.483 166.263 213.032 166.26H119.142Z" fill="url(#paint39_linear)"/>
<path d="M277.479 194.253H262.609L269.788 181.989L277.479 194.253ZM264.2 193.343H275.83L269.815 183.75L264.2 193.343Z" fill="#101449"/>
<path d="M252.896 217.931H240.56V207.003H252.896V217.931ZM241.474 217.02H251.983V207.913H241.474V217.02Z" fill="#101449"/>
<path d="M294.245 217.931C292.89 217.931 291.565 217.53 290.437 216.78C289.31 216.029 288.432 214.963 287.913 213.715C287.395 212.467 287.259 211.093 287.523 209.768C287.788 208.444 288.44 207.227 289.399 206.271C290.357 205.316 291.579 204.666 292.908 204.402C294.237 204.139 295.615 204.274 296.868 204.791C298.12 205.308 299.19 206.183 299.943 207.306C300.696 208.429 301.098 209.75 301.098 211.101C301.096 212.912 300.374 214.648 299.089 215.928C297.804 217.209 296.062 217.929 294.245 217.931ZM294.245 205.181C293.07 205.181 291.922 205.529 290.945 206.179C289.968 206.829 289.207 207.754 288.758 208.836C288.308 209.917 288.19 211.107 288.42 212.256C288.649 213.404 289.214 214.459 290.045 215.287C290.876 216.114 291.934 216.678 293.086 216.907C294.238 217.135 295.433 217.018 296.518 216.57C297.603 216.122 298.531 215.363 299.184 214.39C299.836 213.416 300.185 212.272 300.185 211.101C300.183 209.531 299.556 208.027 298.443 206.917C297.329 205.807 295.82 205.183 294.245 205.181Z" fill="#101449"/>
<path d="M266.926 229.789L266.28 230.433L276.56 240.678L277.206 240.035L266.926 229.789Z" fill="#101449"/>
<path d="M276.795 229.782L266.288 239.8L266.92 240.459L277.427 230.44L276.795 229.782Z" fill="#101449"/>
<path d="M148.601 71.7399C123.654 78.5941 96.3373 83.7537 86.5491 75.7491C91.9082 66.8576 94.9992 58.0938 95.2614 49.4892C95.3205 45.5522 96.9205 41.794 99.7202 39.0158C101.574 37.2313 103.811 35.8912 106.262 35.0975C108.713 34.3037 111.313 34.0771 113.865 34.435L120.34 35.3404C120.558 35.3709 120.774 35.4055 120.99 35.4442C124.097 36.0309 126.943 37.5727 129.126 39.8532C131.309 42.1337 132.721 45.0384 133.164 48.1595C134.528 57.4898 139.114 65.5672 148.601 71.7399Z" fill="url(#paint40_linear)"/>
<path d="M172.664 160.259L182.362 162.252C183.103 162.404 183.801 162.719 184.404 163.173C185.007 163.627 185.502 164.21 185.851 164.878C186.201 165.547 186.396 166.285 186.424 167.038C186.452 167.791 186.311 168.541 186.011 169.233V169.233C185.722 169.902 185.292 170.501 184.749 170.99C184.207 171.478 183.566 171.844 182.869 172.064C182.172 172.284 181.436 172.351 180.711 172.262C179.985 172.173 179.288 171.929 178.665 171.548L163.83 162.455L138.633 103.421L151.684 99.659L172.664 160.259Z" fill="#A0616A"/>
<path d="M103.578 237.722L96.235 239.85L90.6766 228.409L96.3289 225.474L103.578 237.722Z" fill="#A0616A"/>
<path d="M99.847 286.739L90.8373 284.362L92.2478 268.935L100.001 269.411L99.847 286.739Z" fill="#A0616A"/>
<path d="M100.787 227.027L91.2441 233.286L54.5424 191.912C53.7463 191.015 53.1585 189.954 52.8206 188.804C52.4828 187.655 52.4033 186.445 52.5878 185.261C52.7724 184.078 53.2163 182.949 53.8882 181.956C54.5601 180.963 55.4433 180.129 56.4751 179.515L102.196 152.288L109.199 172.336L85.3918 194.601L100.787 227.027Z" fill="#00283F"/>
<path d="M108.823 248.684C108.799 248.715 108.775 248.746 108.751 248.777C108.141 252.336 107.07 255.582 104.678 257.932C103.969 259.526 102.695 260.804 101.101 261.522C99.5061 262.239 97.7022 262.347 96.0334 261.823V261.823C94.4595 261.329 93.1067 260.306 92.2064 258.928C91.306 257.55 90.914 255.903 91.0975 254.268L92.8806 238.384C97.158 237.404 100.42 234.98 102.072 230.263L106.229 233.085C107.459 233.913 108.507 234.983 109.309 236.228C110.11 237.474 110.649 238.869 110.892 240.329C111.134 241.788 111.076 243.282 110.72 244.719C110.365 246.155 109.719 247.505 108.823 248.684V248.684Z" fill="#00283F"/>
<path d="M113.347 68.3383C121.458 68.3383 128.034 61.7848 128.034 53.7006C128.034 45.6164 121.458 39.0629 113.347 39.0629C105.235 39.0629 98.6592 45.6164 98.6592 53.7006C98.6592 61.7848 105.235 68.3383 113.347 68.3383Z" fill="#A0616A"/>
<path d="M126.066 77.1003L102.911 96.2119L101.108 88.3451L105.15 82.2053C106.271 76.1814 105.547 69.5387 103.62 62.4925L118.726 62.5063C119.379 68.2004 121.603 73.1677 126.066 77.1003Z" fill="#A0616A"/>
<path d="M132.585 127.232L101.326 136.722L98.8941 125.641C93.0361 117.803 90.4896 110.648 94.3221 104.81L92.3935 96.0233C97.9259 91.6822 102.276 87.2405 104.665 82.6319L123.898 75.1424L138.036 76.0094L142.211 89.953L132.585 127.232Z" fill="#094265"/>
<path d="M154.792 101.218C148.129 101.148 141.608 103.139 136.128 106.918L138.036 76.0093C139.973 76.2671 141.809 77.023 143.364 78.2026C144.919 79.3823 146.139 80.945 146.904 82.7371L154.792 101.218Z" fill="#094265"/>
<path d="M100.689 273.103L90.7673 270.669L81.1609 227.724L92.2277 186.652L105.55 172.112L102.568 153.679L100.638 133.029L133.181 124.987C144.181 144.892 150.829 162.989 141.125 174.294L105.55 217.385L100.689 273.103Z" fill="#00283F"/>
<path d="M98.41 301.47C98.3655 301.487 98.321 301.505 98.2763 301.522C95.3954 304.856 92.2301 307.574 88.2504 308.53C86.5048 309.75 84.3694 310.287 82.2519 310.037C80.1345 309.788 78.1833 308.77 76.7711 307.178V307.178C75.4392 305.677 74.6721 303.761 74.601 301.758C74.5299 299.755 75.1593 297.79 76.3814 296.199L88.2597 280.73C93.3438 282.386 98.2787 281.898 102.977 278.008L105.538 283.558C106.3 285.193 106.72 286.966 106.772 288.769C106.823 290.571 106.506 292.365 105.839 294.042C105.172 295.718 104.169 297.241 102.892 298.518C101.615 299.795 100.09 300.8 98.41 301.47V301.47Z" fill="#00283F"/>
<path d="M62.1666 170.364L53.4581 177.795C52.7354 178.412 52.1807 179.2 51.8452 180.088C51.5098 180.975 51.4045 181.932 51.5392 182.871C51.6739 183.809 52.0441 184.699 52.6157 185.457C53.1872 186.215 53.9414 186.817 54.8085 187.207V187.207C56.1139 187.794 57.5943 187.865 58.9504 187.406C60.3065 186.948 61.4372 185.993 62.1139 184.735L68.4114 173.029L97.2913 120.505L86.4295 118.47L62.1666 170.364Z" fill="#A0616A"/>
<path d="M99.0314 121.981C93.3906 120.284 88.1067 119.284 84.0088 120.603C84.8678 110.009 86.6383 100.546 92.3934 96.0233L100.575 96.9812L99.0314 121.981Z" fill="#094265"/>
<path d="M129.743 50.3064L98.3293 48.3801L98.7158 42.1187C109.682 34.7496 120.153 35.3917 130.13 44.045L129.743 50.3064Z" fill="url(#paint41_linear)"/>
<defs>
<radialGradient id="paint0_radial" cx="0" cy="0" r="1" gradientUnits="userSpaceOnUse" gradientTransform="translate(180.251 166) rotate(90) scale(166 173)">
<stop stop-color="#14D1C6"/>
<stop offset="1" stop-color="#4886AB" stop-opacity="0.06"/>
</radialGradient>
<linearGradient id="paint1_linear" x1="317.287" y1="354.433" x2="317.287" y2="375.908" gradientUnits="userSpaceOnUse">
<stop stop-color="#0B699E"/>
<stop offset="1" stop-color="#0C608F" stop-opacity="0"/>
</linearGradient>
<linearGradient id="paint2_linear" x1="386.639" y1="354.013" x2="386.639" y2="375.487" gradientUnits="userSpaceOnUse">
<stop stop-color="#0B699E"/>
<stop offset="1" stop-color="#0C608F" stop-opacity="0"/>
</linearGradient>
<linearGradient id="paint3_linear" x1="344.163" y1="82.6481" x2="344.163" y2="112.601" gradientUnits="userSpaceOnUse">
<stop stop-color="#2F2E41"/>
<stop offset="1" stop-color="#0D74D2"/>
</linearGradient>
<linearGradient id="paint4_linear" x1="66.0283" y1="158.737" x2="66.0283" y2="169.209" gradientUnits="userSpaceOnUse">
<stop stop-color="#114F6A"/>
<stop offset="1" stop-color="#12BEB4" stop-opacity="0.58"/>
</linearGradient>
<linearGradient id="paint5_linear" x1="265.689" y1="158.737" x2="265.689" y2="169.209" gradientUnits="userSpaceOnUse">
<stop stop-color="#114F6A"/>
<stop offset="1" stop-color="#12BEB4" stop-opacity="0.58"/>
</linearGradient>
<linearGradient id="paint6_linear" x1="165.917" y1="162.811" x2="165.917" y2="375.516" gradientUnits="userSpaceOnUse">
<stop stop-color="#0B4058"/>
<stop offset="1" stop-color="#12516D" stop-opacity="0"/>
</linearGradient>
<linearGradient id="paint7_linear" x1="332.202" y1="337.365" x2="252.261" y2="367.416" gradientUnits="userSpaceOnUse">
<stop stop-color="#073763"/>
<stop offset="1" stop-color="#0B80ED" stop-opacity="0.1"/>
</linearGradient>
<linearGradient id="paint8_linear" x1="-0.45703" y1="324.849" x2="131.705" y2="360.144" gradientUnits="userSpaceOnUse">
<stop stop-color="#073763"/>
<stop offset="1" stop-color="#0B80ED" stop-opacity="0.1"/>
</linearGradient>
<linearGradient id="paint9_linear" x1="62.1448" y1="173.763" x2="62.1448" y2="252.992" gradientUnits="userSpaceOnUse">
<stop stop-color="#114F6A"/>
<stop offset="1" stop-color="#12BEB4" stop-opacity="0.58"/>
</linearGradient>
<linearGradient id="paint10_linear" x1="269.573" y1="173.763" x2="269.573" y2="252.992" gradientUnits="userSpaceOnUse">
<stop stop-color="#114F6A"/>
<stop offset="1" stop-color="#12BEB4" stop-opacity="0.58"/>
</linearGradient>
<linearGradient id="paint11_linear" x1="62.1516" y1="187.423" x2="62.1516" y2="209.827" gradientUnits="userSpaceOnUse">
<stop stop-color="#00283F"/>
<stop offset="1" stop-color="#094265"/>
</linearGradient>
<linearGradient id="paint12_linear" x1="62.1516" y1="216.928" x2="62.1516" y2="239.323" gradientUnits="userSpaceOnUse">
<stop stop-color="#00283F"/>
<stop offset="1" stop-color="#094265"/>
</linearGradient>
<linearGradient id="paint13_linear" x1="47.3533" y1="205.641" x2="47.3533" y2="221.128" gradientUnits="userSpaceOnUse">
<stop stop-color="#00283F"/>
<stop offset="1" stop-color="#094265"/>
</linearGradient>
<linearGradient id="paint14_linear" x1="76.9514" y1="205.637" x2="76.9514" y2="221.123" gradientUnits="userSpaceOnUse">
<stop stop-color="#00283F"/>
<stop offset="1" stop-color="#094265"/>
</linearGradient>
<linearGradient id="paint15_linear" x1="116.058" y1="227.949" x2="116.058" y2="285.322" gradientUnits="userSpaceOnUse">
<stop stop-color="#114F6A"/>
<stop offset="1" stop-color="#12BEB4" stop-opacity="0.58"/>
</linearGradient>
<linearGradient id="paint16_linear" x1="215.66" y1="227.949" x2="215.66" y2="285.322" gradientUnits="userSpaceOnUse">
<stop stop-color="#114F6A"/>
<stop offset="1" stop-color="#12BEB4" stop-opacity="0.58"/>
</linearGradient>
<linearGradient id="paint17_linear" x1="116.058" y1="237.511" x2="116.058" y2="275.759" gradientUnits="userSpaceOnUse">
<stop stop-color="#00283F"/>
<stop offset="1" stop-color="#094265"/>
</linearGradient>
<linearGradient id="paint18_linear" x1="116.058" y1="243.43" x2="116.058" y2="269.84" gradientUnits="userSpaceOnUse">
<stop stop-color="#00283F"/>
<stop offset="1" stop-color="#094265"/>
</linearGradient>
<linearGradient id="paint19_linear" x1="215.66" y1="237.511" x2="215.66" y2="275.759" gradientUnits="userSpaceOnUse">
<stop stop-color="#00283F"/>
<stop offset="1" stop-color="#094265"/>
</linearGradient>
<linearGradient id="paint20_linear" x1="215.66" y1="243.43" x2="215.66" y2="269.84" gradientUnits="userSpaceOnUse">
<stop stop-color="#00283F"/>
<stop offset="1" stop-color="#094265"/>
</linearGradient>
<linearGradient id="paint21_linear" x1="166.773" y1="251.626" x2="166.773" y2="268.019" gradientUnits="userSpaceOnUse">
<stop stop-color="#114F6A"/>
<stop offset="1" stop-color="#12BEB4" stop-opacity="0.58"/>
</linearGradient>
<linearGradient id="paint22_linear" x1="154.204" y1="230.676" x2="154.204" y2="234.255" gradientUnits="userSpaceOnUse">
<stop stop-color="#114F6A"/>
<stop offset="1" stop-color="#12BEB4" stop-opacity="0.58"/>
</linearGradient>
<linearGradient id="paint23_linear" x1="160.929" y1="230.676" x2="160.929" y2="234.255" gradientUnits="userSpaceOnUse">
<stop stop-color="#114F6A"/>
<stop offset="1" stop-color="#12BEB4" stop-opacity="0.58"/>
</linearGradient>
<linearGradient id="paint24_linear" x1="160.033" y1="239.168" x2="160.033" y2="242.747" gradientUnits="userSpaceOnUse">
<stop stop-color="#114F6A"/>
<stop offset="1" stop-color="#12BEB4" stop-opacity="0.58"/>
</linearGradient>
<linearGradient id="paint25_linear" x1="166.316" y1="239.332" x2="166.316" y2="242.975" gradientUnits="userSpaceOnUse">
<stop stop-color="#114F6A"/>
<stop offset="1" stop-color="#12BEB4" stop-opacity="0.58"/>
</linearGradient>
<linearGradient id="paint26_linear" x1="172.589" y1="239.168" x2="172.589" y2="242.747" gradientUnits="userSpaceOnUse">
<stop stop-color="#114F6A"/>
<stop offset="1" stop-color="#12BEB4" stop-opacity="0.58"/>
</linearGradient>
<linearGradient id="paint27_linear" x1="157.342" y1="235.148" x2="157.342" y2="238.727" gradientUnits="userSpaceOnUse">
<stop stop-color="#114F6A"/>
<stop offset="1" stop-color="#12BEB4" stop-opacity="0.58"/>
</linearGradient>
<linearGradient id="paint28_linear" x1="163.117" y1="235.234" x2="163.117" y2="238.877" gradientUnits="userSpaceOnUse">
<stop stop-color="#114F6A"/>
<stop offset="1" stop-color="#12BEB4" stop-opacity="0.58"/>
</linearGradient>
<linearGradient id="paint29_linear" x1="169.057" y1="235.234" x2="169.057" y2="238.877" gradientUnits="userSpaceOnUse">
<stop stop-color="#114F6A"/>
<stop offset="1" stop-color="#12BEB4" stop-opacity="0.58"/>
</linearGradient>
<linearGradient id="paint30_linear" x1="175.28" y1="235.148" x2="175.28" y2="238.727" gradientUnits="userSpaceOnUse">
<stop stop-color="#114F6A"/>
<stop offset="1" stop-color="#12BEB4" stop-opacity="0.58"/>
</linearGradient>
<linearGradient id="paint31_linear" x1="166.316" y1="230.681" x2="166.316" y2="234.323" gradientUnits="userSpaceOnUse">
<stop stop-color="#114F6A"/>
<stop offset="1" stop-color="#12BEB4" stop-opacity="0.58"/>
</linearGradient>
<linearGradient id="paint32_linear" x1="172.712" y1="230.681" x2="172.712" y2="234.323" gradientUnits="userSpaceOnUse">
<stop stop-color="#114F6A"/>
<stop offset="1" stop-color="#12BEB4" stop-opacity="0.58"/>
</linearGradient>
<linearGradient id="paint33_linear" x1="177.971" y1="230.676" x2="177.971" y2="234.255" gradientUnits="userSpaceOnUse">
<stop stop-color="#114F6A"/>
<stop offset="1" stop-color="#12BEB4" stop-opacity="0.58"/>
</linearGradient>
<linearGradient id="paint34_linear" x1="233.021" y1="172.635" x2="233.021" y2="188.551" gradientUnits="userSpaceOnUse">
<stop stop-color="#114F6A"/>
<stop offset="1" stop-color="#12BEB4" stop-opacity="0.58"/>
</linearGradient>
<linearGradient id="paint35_linear" x1="270.03" y1="178.316" x2="270.03" y2="200.173" gradientUnits="userSpaceOnUse">
<stop stop-color="#00283F"/>
<stop offset="1" stop-color="#094265"/>
</linearGradient>
<linearGradient id="paint36_linear" x1="246.728" y1="201.539" x2="246.728" y2="223.395" gradientUnits="userSpaceOnUse">
<stop stop-color="#00283F"/>
<stop offset="1" stop-color="#094265"/>
</linearGradient>
<linearGradient id="paint37_linear" x1="294.245" y1="200.173" x2="294.245" y2="222.029" gradientUnits="userSpaceOnUse">
<stop stop-color="#00283F"/>
<stop offset="1" stop-color="#094265"/>
</linearGradient>
<linearGradient id="paint38_linear" x1="271.857" y1="224.306" x2="271.857" y2="246.162" gradientUnits="userSpaceOnUse">
<stop stop-color="#00283F"/>
<stop offset="1" stop-color="#094265"/>
</linearGradient>
<linearGradient id="paint39_linear" x1="166.087" y1="166.26" x2="166.087" y2="225.434" gradientUnits="userSpaceOnUse">
<stop stop-color="#114F6A"/>
<stop offset="1" stop-color="#12BEB4" stop-opacity="0.58"/>
</linearGradient>
<linearGradient id="paint40_linear" x1="117.575" y1="34.2701" x2="117.575" y2="79.811" gradientUnits="userSpaceOnUse">
<stop stop-color="#2F2E41"/>
<stop offset="1" stop-color="#0D74D2"/>
</linearGradient>
<linearGradient id="paint41_linear" x1="114.229" y1="37.0349" x2="114.229" y2="50.3064" gradientUnits="userSpaceOnUse">
<stop stop-color="#2F2E41"/>
<stop offset="1" stop-color="#0D74D2"/>
</linearGradient>
</defs>
</svg>
