<svg width="1618" height="1024" viewBox="0 0 1618 1024" fill="none" xmlns="http://www.w3.org/2000/svg">
<rect width="1618" height="1440" fill="url(#paint0_linear)"/>
<path fill-rule="evenodd" clip-rule="evenodd" d="M1618.28 392V1022.85H786C813.686 987.75 871.097 953.373 986.575 938.667C1123.4 921.243 1103.93 876.56 1086.09 835.613C1067.81 793.642 1051.23 755.596 1206.43 754.854C1382.45 754.012 1372.39 688.468 1364.29 635.709C1358.27 596.567 1353.34 564.463 1426.29 571.04C1513.9 578.94 1526.39 534.612 1539.69 487.4C1550.76 448.13 1562.39 406.864 1618.28 392Z" fill="url(#paint1_linear)"/>
<path fill-rule="evenodd" clip-rule="evenodd" d="M1618.28 758.378V1022.85H1244.86C1269.84 1012.18 1269.09 988.49 1268.31 964.089C1267.01 923.239 1265.65 880.384 1384.87 893.227C1491.61 904.726 1481.8 877.697 1469.92 844.97C1456.39 807.692 1440.18 763.02 1590.49 759.477C1600.17 759.249 1609.42 758.879 1618.28 758.378Z" fill="url(#paint2_linear)"/>
<defs>
<linearGradient id="paint0_linear" x1="809" y1="0" x2="809" y2="1440" gradientUnits="userSpaceOnUse">
<stop stop-color="#1E5B8F"/>
<stop offset="1" stop-color="#0E7DA0" stop-opacity="0.39"/>
</linearGradient>
<linearGradient id="paint1_linear" x1="1193.55" y1="360.847" x2="1193.55" y2="1022.85" gradientUnits="userSpaceOnUse">
<stop stop-color="#6EA7C1"/>
<stop offset="1" stop-color="#21587C" stop-opacity="0.27"/>
</linearGradient>
<linearGradient id="paint2_linear" x1="1328.38" y1="727.122" x2="1328.38" y2="1022.85" gradientUnits="userSpaceOnUse">
<stop stop-color="#6EA7C1"/>
<stop offset="1" stop-color="#21587C" stop-opacity="0.27"/>
</linearGradient>
</defs>
</svg>
